<?xml version="1.0" standalone="no"?>
<!DOCTYPE svg PUBLIC "-//W3C//DTD SVG 20010904//EN"
 "http://www.w3.org/TR/2001/REC-SVG-20010904/DTD/svg10.dtd">
<svg version="1.0" xmlns="http://www.w3.org/2000/svg"
 width="337.000000pt" height="337.000000pt" viewBox="0 0 337.000000 337.000000"
 preserveAspectRatio="xMidYMid meet">
<metadata>
Created by potrace 1.14, written by Peter Selinger 2001-2017
</metadata>
<g transform="translate(0.000000,337.000000) scale(0.100000,-0.100000)"
fill="#000000" stroke="none">
<path d="M1647 2944 c-1 -1 -31 -4 -67 -8 -36 -3 -76 -8 -90 -11 -14 -3 -40
-8 -58 -11 -62 -10 -213 -63 -285 -100 -123 -62 -234 -142 -330 -238 -84 -83
-197 -230 -197 -254 0 -6 -4 -12 -9 -14 -12 -4 -74 -140 -101 -220 l-23 -67
-151 -3 -151 -3 0 -335 0 -335 149 -2 c165 -2 156 2 182 -78 15 -48 70 -167
97 -210 6 -11 23 -38 36 -60 40 -66 91 -125 174 -207 78 -78 194 -168 216
-168 6 0 11 -4 11 -9 0 -12 150 -84 240 -115 219 -77 464 -89 700 -35 25 5 48
8 51 7 3 -2 12 2 20 8 12 10 56 24 69 23 18 -2 248 124 308 168 71 52 188 163
244 231 38 47 138 205 138 220 0 7 4 12 8 12 5 0 9 6 9 13 1 6 15 45 32 86 17
40 31 79 31 86 0 25 22 28 167 28 100 -1 144 3 145 11 1 6 2 158 3 339 l1 327
-153 0 c-94 0 -153 4 -154 10 -3 20 -16 56 -30 82 -5 10 -9 23 -9 29 0 22 -90
190 -140 263 -64 93 -192 225 -285 294 -64 48 -268 160 -305 167 -8 2 -35 10
-60 18 -51 17 -121 34 -165 42 -45 8 -262 23 -268 19z"/>
</g>
</svg>
